<svg xmlns="http://www.w3.org/2000/svg" viewBox="0 0 24 24" width="24" height="24" fill="none" stroke="white" stroke-width="2" stroke-linecap="round" stroke-linejoin="round">
  <path d="M21 16.5c-1.14 0-2.25-.4-3.13-1.13l-2.5-2.5c-.59-.59-.69-1.52-.29-2.18l1.25-1.25a1.75 1.75 0 0 0-.27-2.48c-2.16-1.74-5.14-1.18-6.81 1.03a14.94 14.94 0 0 1-6.62-6.62c-1.67-2.2-4.65-2.77-6.81-1.03-1.74.96-2.77 2.77-2.77 4.83 0 6.28 5.72 11 11 11s11-5.72 11-11c0-1.14-.4-2.25-1.13-3.13l-2.5-2.5c-.59-.59-1.52-.69-2.18-.29l-1.25 1.25a1.75 1.75 0 0 0-.27 2.48c1.74 2.16 1.18 5.14-1.03 6.81a14.94 14.94 0 0 1-6.62 6.62c-2.2 1.67-4.65 2.77-6.81 1.03-1.74-.96-2.77-2.77-2.77-4.83"></path>
</svg>
